<svg xmlns="http://www.w3.org/2000/svg" viewBox="0 0 1000 300" width="1000" height="300" role="img" aria-label="Field record — GitHub statistics">
  <defs><style>.s{font-family:'Helvetica Neue',Helvetica,Arial,sans-serif}</style></defs>
  <rect width="1000" height="300" fill="#08080a"/>
  <rect x="40" y="16" width="920" height="268" fill="none" stroke="#3c3c44"/>
  <rect x="40" y="16" width="4" height="268" fill="#d10a11"/>
  <rect x="72" y="40" width="160" height="58" fill="#101016" stroke="#3c3c44"/>
  <rect x="72" y="40" width="3" height="58" fill="#d10a11" opacity=".55"/>
  <text class="s" x="88" y="72" font-size="20" font-weight="bold" letter-spacing="1" fill="#f2f2f2">2,570</text>
  <text class="s" x="88" y="88" font-size="8" letter-spacing="2.2" fill="#8a8a90">COMMITS</text>
  <rect x="244" y="40" width="160" height="58" fill="#101016" stroke="#3c3c44"/>
  <rect x="244" y="40" width="3" height="58" fill="#d10a11" opacity=".55"/>
  <text class="s" x="260" y="72" font-size="20" font-weight="bold" letter-spacing="1" fill="#f2f2f2">0</text>
  <text class="s" x="260" y="88" font-size="8" letter-spacing="2.2" fill="#8a8a90">STARS EARNED</text>
  <rect x="416" y="40" width="160" height="58" fill="#101016" stroke="#3c3c44"/>
  <rect x="416" y="40" width="3" height="58" fill="#d10a11" opacity=".55"/>
  <text class="s" x="432" y="72" font-size="20" font-weight="bold" letter-spacing="1" fill="#f2f2f2">31</text>
  <text class="s" x="432" y="88" font-size="8" letter-spacing="2.2" fill="#8a8a90">PULL REQUESTS</text>
  <rect x="72" y="110" width="160" height="58" fill="#101016" stroke="#3c3c44"/>
  <rect x="72" y="110" width="3" height="58" fill="#d10a11" opacity=".55"/>
  <text class="s" x="88" y="142" font-size="20" font-weight="bold" letter-spacing="1" fill="#f2f2f2">7</text>
  <text class="s" x="88" y="158" font-size="8" letter-spacing="2.2" fill="#8a8a90">ISSUES FILED</text>
  <rect x="244" y="110" width="160" height="58" fill="#101016" stroke="#3c3c44"/>
  <rect x="244" y="110" width="3" height="58" fill="#d10a11" opacity=".55"/>
  <text class="s" x="260" y="142" font-size="20" font-weight="bold" letter-spacing="1" fill="#f2f2f2">7</text>
  <text class="s" x="260" y="158" font-size="8" letter-spacing="2.2" fill="#8a8a90">FOLLOWERS</text>
  <rect x="416" y="110" width="160" height="58" fill="#101016" stroke="#3c3c44"/>
  <rect x="416" y="110" width="3" height="58" fill="#d10a11" opacity=".55"/>
  <text class="s" x="432" y="142" font-size="20" font-weight="bold" letter-spacing="1" fill="#f2f2f2">2</text>
  <text class="s" x="432" y="158" font-size="8" letter-spacing="2.2" fill="#8a8a90">CONTRIBUTED TO</text>
  <rect x="620" y="40" width="308" height="128" fill="#101016" stroke="#3c3c44"/>
  <g stroke="#d10a11" stroke-width="1.2" fill="none" opacity=".85">
    <path d="M620 52 v-12 h12"/><path d="M916 40 h12 v12"/>
    <path d="M620 156 v12 h12"/><path d="M916 168 h12 v-12"/>
  </g>
  <text class="s" x="774" y="68" text-anchor="middle" font-size="9.5" letter-spacing="2.8" fill="#8a8a90">CURRENT STREAK</text>
  <text class="s" x="774" y="118" text-anchor="middle" font-size="42" font-weight="bold" letter-spacing="2" fill="#d10a11">192</text>
  <text class="s" x="774" y="136" text-anchor="middle" font-size="9" letter-spacing="3" fill="#8a8a90">DAYS</text>
  <text class="s" x="774" y="158" text-anchor="middle" font-size="9.5" letter-spacing="2" fill="#8a8a90">LONGEST &#8212; 192 DAYS</text>
  <rect x="72" y="192" width="3" height="16" fill="#d10a11"/>
  <text class="s" x="86" y="205" font-size="9.5" letter-spacing="2.8" fill="#8a8a90">TOP LANGUAGES</text>
  <text class="s" x="928" y="205" text-anchor="end" font-size="9" letter-spacing="2.6" fill="#3c3c44">// BY CODE VOLUME</text>
  <rect x="72" y="216" width="856" height="10" fill="#101016" stroke="#3c3c44"/>
  <rect x="72.0" y="216" width="396.0" height="10" fill="#ff525a"/>
  <rect x="468.0" y="216" width="216.6" height="10" fill="#e31b23"/>
  <rect x="684.6" y="216" width="190.5" height="10" fill="#c00d13"/>
  <rect x="875.1" y="216" width="28.3" height="10" fill="#8f070e"/>
  <rect x="903.4" y="216" width="18.1" height="10" fill="#67060b"/>
  <rect x="921.4" y="216" width="6.6" height="10" fill="#45050a"/>
  <rect x="72" y="244" width="8" height="8" fill="#ff525a"/>
  <text class="s" x="86" y="252" font-size="10" fill="#8a8a90">JavaScript</text>
  <text class="s" x="148" y="252" font-size="10" font-weight="bold" fill="#f2f2f2">46.3%</text>
  <rect x="203" y="244" width="8" height="8" fill="#e31b23"/>
  <text class="s" x="217" y="252" font-size="10" fill="#8a8a90">Python</text>
  <text class="s" x="256.6" y="252" font-size="10" font-weight="bold" fill="#f2f2f2">25.3%</text>
  <rect x="311.6" y="244" width="8" height="8" fill="#c00d13"/>
  <text class="s" x="325.6" y="252" font-size="10" fill="#8a8a90">TypeScript</text>
  <text class="s" x="387.6" y="252" font-size="10" font-weight="bold" fill="#f2f2f2">22.3%</text>
  <rect x="442.6" y="244" width="8" height="8" fill="#8f070e"/>
  <text class="s" x="456.6" y="252" font-size="10" fill="#8a8a90">CSS</text>
  <text class="s" x="479.40000000000003" y="252" font-size="10" font-weight="bold" fill="#f2f2f2">3.3%</text>
  <rect x="528.6" y="244" width="8" height="8" fill="#67060b"/>
  <text class="s" x="542.6" y="252" font-size="10" fill="#8a8a90">HTML</text>
  <text class="s" x="571" y="252" font-size="10" font-weight="bold" fill="#f2f2f2">2.1%</text>
  <rect x="620.2" y="244" width="8" height="8" fill="#45050a"/>
  <text class="s" x="634.2" y="252" font-size="10" fill="#8a8a90">Other</text>
  <text class="s" x="668.2" y="252" font-size="10" font-weight="bold" fill="#f2f2f2">0.8%</text>
  <text class="s" x="928" y="274" text-anchor="end" font-size="8" letter-spacing="2" fill="#3c3c44">LAST SYNC &#8212; 2026-09-05 14:21 UTC</text>
</svg>
