<svg xmlns="http://www.w3.org/2000/svg" viewBox="0 0 1000 172" width="1000" height="172" role="img" aria-label="MINDWIRE">
  <defs>
    <pattern id="gg" width="14" height="14" patternUnits="userSpaceOnUse">
      <path d="M14 0 H0 V14" fill="none" stroke="#1a1a22" stroke-width="1"/>
    </pattern>
  </defs>
  <rect width="1000" height="172" fill="#0d0d11"/>
  <rect x="40" y="16" width="920" height="140" fill="none" stroke="#33333c"/>
  <rect x="40" y="16" width="4" height="140" fill="#fcee0a"/>

  <rect x="72" y="40" width="60" height="76" fill="#16161d"/>
  <rect x="72" y="40" width="60" height="76" fill="url(#gg)"/>
  <g stroke="#49f3ff" stroke-width="1.2" fill="none" opacity=".85">
    <path d="M72 52 v-12 h12"/><path d="M120 40 h12 v12"/>
    <path d="M72 104 v12 h12"/><path d="M120 116 h12 v12"/>
  </g>
  <g stroke="#8b8b93" stroke-width="1" fill="none" opacity=".5">
    <rect x="92" y="68" width="20" height="20"/>
    <path d="M102 60 v8 M102 88 v8 M84 78 h8 M112 78 h8 M92 68 l-6 -6 M112 68 l6 -6 M92 88 l-6 6 M112 88 l6 6"/>
  </g>

  <text font-family="'Courier New',Courier,monospace" x="152" y="48" font-size="9.5" letter-spacing="3.4" fill="#fcee0a">GIG 02</text>
  <text font-family="'Helvetica Neue',Helvetica,Arial,sans-serif" x="152" y="82" font-size="25" font-weight="bold" letter-spacing="4" fill="#f2f2f2">MINDWIRE</text>
  <text font-family="'Helvetica Neue',Helvetica,Arial,sans-serif" x="153" y="106" font-size="12.5" fill="#8b8b93">Ship AI products on the best harnesses without building another agent loop.</text>
    <rect x="152" y="124" width="33.5" height="20" fill="none" stroke="#33333c"/>
    <text font-family="'Courier New',Courier,monospace" x="168.8" y="138" font-size="10" text-anchor="middle" fill="#8b8b93">AI</text>
    <rect x="193.5" y="124" width="57" height="20" fill="none" stroke="#33333c"/>
    <text font-family="'Courier New',Courier,monospace" x="222.0" y="138" font-size="10" text-anchor="middle" fill="#8b8b93">Agents</text>
    <rect x="258.5" y="124" width="39.5" height="20" fill="none" stroke="#33333c"/>
    <text font-family="'Courier New',Courier,monospace" x="278.3" y="138" font-size="10" text-anchor="middle" fill="#8b8b93">SDK</text>
    <rect x="306" y="124" width="80" height="20" fill="none" stroke="#33333c"/>
    <text font-family="'Courier New',Courier,monospace" x="346.0" y="138" font-size="10" text-anchor="middle" fill="#8b8b93">Apache-2.0</text>

  <text font-family="'Courier New',Courier,monospace" x="928" y="52" text-anchor="end" font-size="9.5" letter-spacing="2.8" fill="#8b8b93">REP</text>
  <path d="M768 78 l6.5 8 -6.5 8 -6.5 -8 Z" fill="#fcee0a"/><path d="M785 78 l6.5 8 -6.5 8 -6.5 -8 Z" fill="#fcee0a"/><path d="M802 78 l6.5 8 -6.5 8 -6.5 -8 Z" fill="#fcee0a"/><path d="M819 78 l6.5 8 -6.5 8 -6.5 -8 Z" fill="#fcee0a"/><path d="M836 78 l6.5 8 -6.5 8 -6.5 -8 Z" fill="#fcee0a"/>
  <text font-family="'Helvetica Neue',Helvetica,Arial,sans-serif" x="928" y="110" text-anchor="end" font-size="11" font-weight="bold" letter-spacing="2.4" fill="#f2f2f2">LEGENDARY</text>
  <text font-family="'Courier New',Courier,monospace" x="928" y="132" text-anchor="end" font-size="10" letter-spacing="1.6" fill="#49f3ff">mindwire.sh &#8599;</text>
</svg>
